<?xml version="1.0" encoding="utf-8"?>
<!-- Generator: Adobe Illustrator 22.0.0, SVG Export Plug-In . SVG Version: 6.00 Build 0)  -->
<svg version="1.1" id="Layer_1" xmlns="http://www.w3.org/2000/svg" xmlns:xlink="http://www.w3.org/1999/xlink" x="0px" y="0px"
	 width="112px" height="112px" viewBox="0 0 112 112" style="enable-background:new 0 0 112 112;" xml:space="preserve">
<style type="text/css">
	.st0{fill:#4E4E4E;}
	.st1{fill:#5E5E5E;}
	.st2{fill:#808080;}
</style>
<path class="st0" d="M108,12.1L85,1c-1.3-0.6-2.8-0.8-4.2-0.6C79.4,0.7,78,1.4,77,2.4L1.5,71.2c-0.9,0.8-1.5,2-1.5,3.2
	c-0.1,1.2,0.4,2.4,1.2,3.4c0.1,0.1,0.2,0.2,0.3,0.3l6.2,5.6c0.8,0.7,1.8,1.2,2.9,1.2c1.1,0,2.2-0.3,3-0.9l90.9-69
	c0.7-0.5,1.5-0.8,2.4-0.9c0.9-0.1,1.7,0.1,2.5,0.5c0.8,0.4,1.4,1,1.9,1.7c0.5,0.7,0.7,1.6,0.7,2.4v-0.3c0-1.3-0.4-2.6-1.1-3.7
	C110.2,13.6,109.2,12.7,108,12.1z"/>
<path class="st1" d="M108,99.9L85,111c-1.3,0.6-2.8,0.8-4.2,0.6c-1.4-0.2-2.7-0.9-3.8-1.9L1.5,40.8c-0.9-0.8-1.5-2-1.5-3.2
	c-0.1-1.2,0.4-2.4,1.2-3.4c0.1-0.1,0.2-0.2,0.3-0.3l6.2-5.6c0.8-0.7,1.8-1.2,2.9-1.2c1.1,0,2.2,0.3,3,0.9l90.9,69
	c0.7,0.5,1.5,0.8,2.4,0.9c0.9,0.1,1.7-0.1,2.5-0.5c0.8-0.4,1.4-1,1.9-1.7c0.5-0.7,0.7-1.6,0.7-2.4v0.3c0,1.3-0.4,2.6-1.1,3.7
	C110.2,98.4,109.2,99.3,108,99.9z"/>
<path class="st2" d="M85,111c-1.3,0.6-2.8,0.8-4.2,0.6c-1.4-0.2-2.7-0.9-3.8-1.9c0.6,0.6,1.3,1,2.1,1.1c0.8,0.2,1.6,0.1,2.4-0.2
	c0.7-0.3,1.4-0.8,1.8-1.5c0.4-0.7,0.7-1.5,0.7-2.3V5.3c0-0.8-0.2-1.6-0.7-2.3c-0.5-0.7-1.1-1.2-1.8-1.5c-0.7-0.3-1.6-0.4-2.4-0.2
	c-0.8,0.2-1.5,0.5-2.1,1.1c1-1,2.3-1.7,3.8-1.9c1.4-0.2,2.9,0,4.2,0.6L108,12.1c1.2,0.6,2.2,1.5,2.9,2.6c0.7,1.1,1.1,2.4,1.1,3.7
	v75.2c0,1.3-0.4,2.6-1.1,3.7c-0.7,1.1-1.7,2-2.9,2.6L85,111z"/>
</svg>
