<?xml version="1.0" encoding="utf-8"?>
<!-- Generator: Adobe Illustrator 22.0.0, SVG Export Plug-In . SVG Version: 6.00 Build 0)  -->
<svg version="1.1" id="Layer_1" xmlns="http://www.w3.org/2000/svg" xmlns:xlink="http://www.w3.org/1999/xlink" x="0px" y="0px"
	 width="113px" height="101px" viewBox="0 0 113 101" style="enable-background:new 0 0 113 101;" xml:space="preserve">
<style type="text/css">
	.st0{clip-path:url(#SVGID_2_);}
</style>
<g>
	<defs>
		<rect id="SVGID_1_" width="113" height="101"/>
	</defs>
	<clipPath id="SVGID_2_">
		<use xlink:href="#SVGID_1_"  style="overflow:visible;"/>
	</clipPath>
	<g class="st0">
		<path d="M92.9,32.7c-1.2-0.4-2.4-0.8-3.6-1.2c0.2-0.8,0.4-1.7,0.6-2.5c2.8-13.4,1-24.2-5.2-27.8c-5.9-3.4-15.5,0.1-25.3,8.6
			c-1,0.8-1.9,1.7-2.8,2.6c-0.6-0.6-1.2-1.2-1.9-1.7C44.5,1.7,34.2-2.1,28.1,1.4C22.2,4.9,20.5,15,23,27.7c0.2,1.3,0.5,2.5,0.8,3.8
			c-1.4,0.4-2.8,0.9-4.2,1.3C7.6,37,0,43.5,0,50.4c0,7,8.2,14.1,20.7,18.4c1,0.3,2,0.7,3.1,1c-0.3,1.3-0.6,2.7-0.9,4
			c-2.4,12.5-0.5,22.4,5.4,25.8c6.1,3.5,16.2-0.1,26.2-8.8c0.8-0.7,1.6-1.4,2.4-2.2c1,1,2,1.9,3.1,2.8c9.6,8.3,19.1,11.6,25,8.2
			c6.1-3.5,8-14.2,5.5-27.1c-0.2-1-0.4-2-0.7-3c0.7-0.2,1.4-0.4,2.1-0.7c13-4.3,21.4-11.3,21.4-18.4C113,43.5,105.1,36.9,92.9,32.7z
			 M90.1,64.1c-0.6,0.2-1.3,0.4-1.9,0.6c-1.4-4.5-3.4-9.4-5.7-14.4c2.3-4.9,4.1-9.6,5.5-14.2c1.2,0.3,2.3,0.7,3.4,1.1
			c10.5,3.6,16.8,9,16.8,13.1C108.2,54.7,101.3,60.4,90.1,64.1z M85.5,73.4c1.1,5.7,1.3,10.9,0.5,15c-0.7,3.6-2,6.1-3.7,7
			c-3.6,2.1-11.2-0.6-19.4-7.7c-1-0.8-1.9-1.7-2.8-2.6c3.2-3.5,6.4-7.6,9.5-12.1c5.5-0.5,10.6-1.3,15.3-2.4
			C85.1,71.5,85.3,72.5,85.5,73.4z M38.5,95c-3.5,1.2-6.2,1.3-7.9,0.3c-3.6-2.1-5-10-3-20.7c0.2-1.3,0.5-2.5,0.8-3.8
			c4.6,1,9.8,1.8,15.2,2.2c3.1,4.4,6.4,8.5,9.7,12c-0.7,0.7-1.4,1.3-2.2,2C46.8,90.9,42.4,93.7,38.5,95z M22.2,64.1
			c-5.5-1.9-10.1-4.3-13.2-7c-2.8-2.4-4.2-4.8-4.2-6.7c0-4.1,6.1-9.4,16.4-13c1.2-0.4,2.5-0.8,3.9-1.2c1.4,4.6,3.3,9.4,5.5,14.3
			c-2.3,5-4.1,9.9-5.6,14.5C24.1,64.7,23.1,64.4,22.2,64.1z M27.7,26.8C25.6,15.9,27,7.7,30.5,5.6c3.8-2.2,12.1,0.9,20.9,8.8
			c0.6,0.5,1.1,1,1.7,1.6c-3.3,3.5-6.5,7.6-9.6,12c-5.3,0.5-10.4,1.3-15.1,2.4C28.2,29.1,27.9,28,27.7,26.8L27.7,26.8z M76.4,38.9
			c-1.1-1.9-2.3-3.8-3.4-5.7c3.6,0.5,7.1,1.1,10.3,1.8c-1,3.1-2.2,6.4-3.6,9.8C78.6,42.8,77.6,40.8,76.4,38.9z M56.6,19.4
			c2.2,2.4,4.5,5.1,6.6,8.1c-4.4-0.2-8.9-0.2-13.4,0C52,24.6,54.3,21.9,56.6,19.4z M36.6,38.9c-1.1,1.9-2.2,3.9-3.2,5.9
			c-1.4-3.3-2.6-6.6-3.6-9.8c3.2-0.7,6.7-1.3,10.2-1.8C38.8,35.1,37.7,37,36.6,38.9L36.6,38.9z M40.1,67.9c-3.7-0.4-7.2-1-10.4-1.7
			c1-3.2,2.2-6.6,3.7-10c1,2,2.1,3.9,3.2,5.9C37.7,64,38.9,66,40.1,67.9z M56.7,81.6c-2.3-2.5-4.6-5.2-6.8-8.2
			c2.2,0.1,4.4,0.1,6.6,0.1c2.3,0,4.6-0.1,6.8-0.2C61.1,76.4,58.9,79.2,56.7,81.6z M79.7,56c1.5,3.5,2.8,6.8,3.8,10
			c-3.3,0.8-6.8,1.4-10.5,1.8c1.2-1.9,2.4-3.8,3.5-5.8C77.6,60,78.7,58,79.7,56z M72.3,59.6c-1.7,3-3.5,5.9-5.4,8.8
			c-3.4,0.2-6.9,0.4-10.3,0.4c-3.5,0-6.9-0.1-10.2-0.3c-2-2.9-3.8-5.8-5.5-8.8h0c-1.7-3-3.3-6-4.8-9.1c1.5-3.1,3.1-6.2,4.8-9.1l0,0
			c1.7-3,3.5-5.9,5.5-8.8c3.4-0.3,6.8-0.4,10.3-0.4h0c3.5,0,6.9,0.1,10.3,0.4c1.9,2.8,3.7,5.8,5.4,8.7c1.7,3,3.3,6,4.9,9.1
			C75.6,53.5,74,56.6,72.3,59.6z M82.2,5.5c3.8,2.2,5.3,11,2.9,22.6c-0.2,0.7-0.3,1.5-0.5,2.3c-4.7-1.1-9.8-1.9-15.1-2.4
			c-3.1-4.4-6.3-8.5-9.6-12c0.8-0.8,1.7-1.6,2.6-2.4C70.9,6.3,78.7,3.4,82.2,5.5z M56.5,40.2c5.6,0,10.1,4.5,10.1,10.1
			c0,5.6-4.5,10.1-10.1,10.1c-5.6,0-10.1-4.5-10.1-10.1C46.4,44.8,50.9,40.2,56.5,40.2z"/>
	</g>
</g>
</svg>
